<svg width="2786" height="1141" version="1.1" xmlns="http://www.w3.org/2000/svg" desc="Created with imagetracer.js version 1.2.6" ><path fill="rgb(0,0,0)" stroke="rgb(0,0,0)" stroke-width="1" opacity="0" d="M 0 0 L 2786 0 L 2786 1141 L 0 1141 L 0 0 Z M 875 126 L 875 1022 L 1184 1022 L 1184 964 L 1184 963 L 934 963 L 934 556 L 1085 556 L 1085 498 L 934 498 L 934 185 L 1184 185 L 1184 127 L 1184 126 L 875 126 Z M 118 128 L 118 185 L 343 185 L 353 189 Q 363 195 365 210 L 365 380 L 317 493 L 314 498 L 212 498 L 212 556 L 342 556 L 354 561 L 362 571 L 365 581 L 365 938 Q 363 939 364 944 L 360 952 Q 354 960 343 963 L 119 963 L 118 964 L 118 1022 L 345 1022 L 346 1021 L 360 1020 L 375 1015 L 395 1002 Q 407 991 415 977 L 420 965 L 423 952 L 423 573 L 421 562 L 416 548 L 405 530 Q 393 514 374 506 L 375 501 L 423 388 L 423 198 L 419 181 Q 415 168 407 160 Q 396 146 381 137 L 363 130 L 352 128 L 118 128 Z M 567 128 L 547 133 Q 533 138 524 147 Q 513 157 505 170 L 498 188 L 497 199 L 496 200 L 496 772 L 497 773 L 497 790 L 498 791 L 498 799 L 499 800 L 501 818 L 506 839 L 517 870 Q 535 910 562 942 Q 598 984 652 1009 Q 675 1020 704 1027 L 732 1032 L 761 1033 L 762 1034 L 765 1034 L 765 976 L 750 976 L 749 975 L 740 975 L 739 974 L 727 973 L 706 968 L 686 961 Q 649 946 623 921 Q 591 893 572 852 L 560 818 L 556 799 L 555 782 L 554 781 L 554 207 L 559 196 Q 565 188 576 185 L 803 185 L 803 129 L 803 128 L 567 128 Z M 2326 562 L 2306 582 L 2306 584 L 2314 591 L 2334 572 L 2326 562 Z M 1571 598 L 1558 601 L 1543 610 Q 1530 620 1526 640 L 1526 656 L 1527 661 L 1536 679 Q 1547 693 1568 697 L 1584 697 L 1601 691 L 1603 689 L 1613 699 L 1621 691 L 1612 682 Q 1622 672 1625 655 L 1624 636 Q 1620 622 1612 614 Q 1604 606 1594 601 L 1581 598 L 1571 598 Z M 1913 598 L 1900 601 L 1886 609 Q 1872 619 1868 639 Q 1866 652 1869 661 L 1878 679 Q 1889 693 1910 697 L 1926 697 L 1934 695 Q 1944 691 1952 684 L 1955 680 L 1948 670 Q 1944 668 1945 672 Q 1937 681 1924 684 Q 1905 685 1896 677 Q 1884 669 1881 653 L 1882 638 L 1889 625 Q 1897 614 1912 611 L 1923 611 L 1930 613 Q 1939 617 1946 624 L 1954 615 Q 1946 605 1933 600 L 1923 598 L 1913 598 Z M 2112 598 L 2111 695 L 2112 695 L 2124 695 L 2125 632 L 2186 697 Q 2185 699 2188 698 L 2188 601 L 2188 600 L 2175 600 L 2175 665 L 2112 598 Z M 2517 598 L 2502 602 L 2492 608 L 2478 624 L 2473 637 Q 2475 642 2472 644 Q 2472 669 2485 682 Q 2495 693 2514 697 L 2530 697 L 2541 694 Q 2552 690 2559 681 L 2559 679 L 2552 670 Q 2543 680 2528 684 L 2512 683 L 2498 675 Q 2489 668 2486 656 L 2486 641 L 2492 627 Q 2500 614 2517 611 L 2528 611 L 2535 613 L 2551 624 L 2558 616 L 2558 614 Q 2545 598 2517 598 Z M 2622 598 L 2605 603 L 2596 609 Q 2582 619 2578 638 L 2578 658 Q 2581 669 2587 678 Q 2598 693 2620 697 Q 2632 699 2640 696 Q 2653 692 2662 684 Q 2669 676 2674 666 L 2677 652 L 2676 637 Q 2673 625 2667 618 Q 2659 608 2648 602 L 2633 598 L 2622 598 Z M 1379 599 L 1335 695 L 1349 695 L 1357 675 L 1359 673 L 1399 673 L 1408 693 L 1409 695 L 1421 695 L 1379 599 Z M 1271 600 L 1271 695 L 1284 695 L 1284 659 L 1302 659 L 1311 657 L 1318 653 L 1324 646 L 1328 633 Q 1329 618 1322 611 Q 1316 602 1304 600 L 1271 600 Z M 1445 600 L 1445 695 L 1457 695 L 1457 659 L 1461 658 L 1461 660 L 1494 695 L 1508 695 L 1475 658 L 1475 656 Q 1484 655 1491 651 Q 1498 646 1501 636 Q 1503 620 1497 613 Q 1490 602 1476 600 L 1445 600 Z M 1648 600 L 1648 667 L 1651 678 L 1656 686 L 1664 692 L 1670 695 L 1679 697 Q 1697 698 1707 690 Q 1716 682 1719 668 L 1719 601 L 1719 600 L 1706 600 L 1706 666 L 1702 676 Q 1697 683 1687 685 Q 1676 685 1671 681 Q 1663 676 1661 666 L 1661 601 L 1661 600 L 1648 600 Z M 1753 600 L 1753 695 L 1810 695 L 1810 685 L 1810 684 L 1766 684 L 1766 652 L 1793 652 L 1793 640 L 1766 640 L 1766 612 L 1808 612 L 1808 601 L 1808 600 L 1753 600 Z M 1979 600 L 1979 695 L 1980 695 L 1992 695 L 1992 601 L 1992 600 L 1979 600 Z M 2025 600 L 2025 695 L 2082 695 L 2082 685 L 2082 684 L 2038 684 L 2038 652 L 2064 652 L 2064 640 L 2038 640 L 2038 612 L 2080 612 L 2080 601 L 2080 600 L 2025 600 Z M 2216 600 L 2216 612 L 2241 612 L 2241 613 L 2241 695 L 2254 695 L 2254 695 L 2254 612 L 2278 612 L 2278 601 L 2278 600 L 2216 600 Z M 2306 600 L 2306 695 L 2307 695 L 2319 695 L 2319 601 L 2319 600 L 2306 600 Z M 2352 600 L 2352 695 L 2365 695 L 2365 695 L 2365 652 L 2391 652 L 2391 640 L 2365 640 L 2365 612 L 2405 612 L 2405 601 L 2405 600 L 2352 600 Z M 2433 600 L 2433 695 L 2434 695 L 2446 695 L 2446 601 L 2446 600 L 2433 600 Z M 1893 726 L 1873 746 L 1882 755 L 1901 737 L 1901 735 L 1893 726 Z M 1541 763 L 1540 861 L 1541 861 L 1553 861 L 1554 797 L 1613 861 L 1617 863 L 1617 766 L 1617 765 L 1604 765 L 1604 830 L 1541 763 Z M 1468 764 Q 1455 767 1447 774 L 1434 789 L 1430 798 L 1428 808 L 1429 825 Q 1432 836 1438 844 Q 1448 858 1469 862 L 1488 862 L 1495 860 Q 1507 855 1515 846 L 1515 844 L 1508 835 Q 1500 845 1486 849 L 1471 849 L 1456 842 L 1447 833 L 1442 822 Q 1444 816 1441 815 L 1442 805 L 1448 792 Q 1456 779 1475 776 Q 1497 776 1506 790 L 1514 780 Q 1506 769 1492 765 L 1488 764 L 1468 764 Z M 1684 764 Q 1670 767 1662 774 L 1651 786 L 1645 799 L 1643 810 Q 1643 834 1655 846 Q 1665 858 1684 862 L 1703 862 L 1707 861 Q 1718 858 1726 851 Q 1734 844 1739 833 L 1742 824 Q 1740 817 1743 816 Q 1743 792 1731 781 Q 1724 772 1713 767 Q 1702 762 1684 764 Z M 1873 764 Q 1858 767 1850 775 Q 1840 783 1835 796 L 1832 811 Q 1833 833 1844 846 Q 1854 858 1873 862 L 1892 862 L 1896 861 Q 1907 858 1915 851 L 1925 839 L 1930 828 L 1932 817 L 1930 799 L 1921 782 Q 1913 772 1902 767 Q 1891 762 1873 764 Z M 1990 764 Q 1978 767 1970 773 Q 1954 784 1950 807 L 1950 820 L 1952 829 L 1960 844 Q 1970 858 1991 862 L 2010 862 L 2017 860 Q 2029 855 2037 846 L 2037 814 L 2000 814 L 2000 826 L 2025 826 L 2025 839 Q 2019 846 2008 849 L 1993 849 L 1978 842 L 1967 830 L 1963 816 Q 1963 800 1970 792 Q 1978 779 1997 776 L 2012 778 Q 2022 782 2028 790 L 2036 780 Q 2028 769 2014 765 L 2010 764 L 1990 764 Z M 2143 764 Q 2128 767 2119 776 Q 2107 786 2103 804 L 2103 822 L 2104 827 Q 2108 839 2116 848 Q 2126 858 2143 862 Q 2161 864 2172 859 Q 2183 854 2190 846 L 2182 835 Q 2174 845 2160 849 L 2145 849 L 2132 843 Q 2119 835 2116 819 Q 2115 798 2125 789 Q 2133 779 2149 776 L 2156 776 L 2167 779 Q 2175 783 2181 790 L 2189 780 Q 2180 769 2166 765 L 2162 764 L 2143 764 Z M 2248 764 Q 2236 767 2228 773 Q 2212 784 2208 806 L 2208 821 L 2209 826 L 2217 843 Q 2228 857 2248 862 L 2268 862 Q 2279 859 2288 853 Q 2303 842 2307 821 L 2307 806 L 2306 801 L 2298 784 Q 2289 772 2275 766 L 2268 764 L 2248 764 Z M 583 765 L 584 790 L 587 806 L 593 827 Q 605 860 627 885 Q 647 907 674 923 L 707 938 L 735 945 L 751 946 L 752 947 L 765 947 L 765 947 L 765 890 Q 739 890 721 882 Q 699 873 683 859 Q 667 845 656 827 Q 649 813 644 798 L 640 776 L 640 766 L 640 765 L 583 765 Z M 669 765 L 670 781 L 674 797 Q 681 814 692 828 Q 706 845 729 854 L 745 859 L 759 860 L 760 861 Q 765 862 765 861 L 765 805 L 764 803 L 758 803 L 751 801 L 741 795 L 731 784 L 726 768 L 726 765 L 669 765 Z M 1259 765 L 1259 777 L 1284 777 L 1284 778 L 1284 861 L 1297 861 L 1297 861 L 1297 777 L 1321 777 L 1321 766 L 1321 765 L 1259 765 Z M 1349 765 L 1349 861 L 1406 861 L 1406 850 L 1406 849 L 1362 849 L 1362 818 L 1389 818 L 1389 806 L 1362 806 L 1362 777 L 1405 777 L 1405 766 L 1405 765 L 1349 765 Z M 1768 765 L 1768 861 L 1813 861 L 1813 848 L 1781 848 L 1781 766 L 1781 765 L 1768 765 Z M 2064 765 L 2064 861 L 2065 861 L 2076 861 L 2076 766 L 2076 765 L 2064 765 Z M 2082 924 L 2081 1022 L 2082 1022 L 2094 1022 L 2095 958 L 2155 1023 L 2158 1024 L 2158 928 L 2158 927 L 2145 927 L 2145 991 L 2082 924 Z M 1594 925 L 1589 933 L 1550 1021 L 1551 1022 L 1563 1022 L 1572 1001 L 1574 999 L 1614 999 L 1623 1021 L 1624 1022 L 1636 1022 L 1594 925 Z M 1830 925 L 1787 1021 L 1788 1022 L 1800 1022 L 1809 1001 L 1810 999 L 1850 999 L 1860 1022 L 1873 1022 L 1830 925 Z M 2016 925 L 1972 1021 L 1973 1022 L 1985 1022 L 1988 1017 L 1994 1001 L 1996 999 L 2036 999 L 2045 1021 L 2046 1022 L 2058 1022 L 2016 925 Z M 2225 925 L 2181 1022 L 2195 1022 L 2204 1001 L 2205 999 L 2245 999 L 2254 1021 L 2256 1022 L 2267 1022 L 2267 1020 L 2225 925 Z M 1271 927 L 1271 1022 L 1297 1022 L 1302 1021 Q 1316 1018 1326 1009 Q 1336 1000 1339 985 L 1339 965 L 1337 957 L 1331 946 Q 1322 934 1308 929 L 1299 927 L 1271 927 Z M 1366 927 L 1366 1022 L 1422 1022 L 1422 1011 L 1422 1010 L 1379 1010 L 1379 979 L 1405 979 L 1405 967 L 1379 967 L 1379 939 L 1421 939 L 1421 928 L 1421 927 L 1366 927 Z M 1487 927 L 1487 1022 L 1532 1022 L 1532 1009 L 1500 1009 L 1500 928 L 1500 927 L 1487 927 Z M 1695 927 L 1695 1022 L 1708 1022 L 1708 1022 L 1708 979 L 1751 979 L 1751 1022 L 1764 1022 L 1764 1022 L 1764 927 L 1752 927 L 1751 928 L 1751 967 L 1708 967 L 1708 928 L 1708 927 L 1695 927 Z M 1896 927 L 1896 1022 L 1932 1022 L 1946 1016 Q 1952 1011 1954 1002 L 1954 988 L 1949 977 L 1942 971 L 1949 959 Q 1951 943 1945 937 Q 1939 929 1929 927 L 1896 927 Z " /><path fill="rgb(0,0,0)" stroke="rgb(0,0,0)" stroke-width="1" opacity="0" d="M 1570.5 611 L 1580.5 611 L 1590.5 614 L 1605 626.5 Q 1612.2 634.8 1612 650.5 L 1610 659.5 Q 1607.8 666.8 1602.5 671 L 1587.5 655 L 1585.5 655 L 1578 662.5 L 1593 678.5 L 1593 680 L 1581.5 684 L 1569.5 684 Q 1554.8 680.8 1547 670.5 Q 1538.2 661.3 1539 642.5 Q 1542 627 1552.5 619 Q 1559.5 613 1570.5 611 Z " /><path fill="rgb(0,0,0)" stroke="rgb(0,0,0)" stroke-width="1" opacity="0" d="M 2621.5 611 L 2632.5 611 L 2639.5 613 Q 2649.8 617.2 2656 625.5 Q 2661.2 631.4 2663 640.5 L 2663 654.5 Q 2659.4 670.4 2647.5 678 L 2633.5 684 L 2621.5 684 Q 2606 680.5 2598 669.5 Q 2589.7 660.3 2591 641.5 Q 2594.3 626.8 2604.5 619 Q 2611.1 613.1 2621.5 611 Z " /><path fill="rgb(0,0,0)" stroke="rgb(0,0,0)" stroke-width="1" opacity="0" d="M 1284 612 L 1302.5 612 L 1310 616 L 1314 623.5 L 1315 630.5 L 1312 639.5 L 1306.5 645 L 1301.5 647 L 1284 647 L 1284 612 Z " /><path fill="rgb(0,0,0)" stroke="rgb(0,0,0)" stroke-width="1" opacity="0" d="M 1457 612 L 1474.5 612 Q 1481.3 613.3 1485 617.5 Q 1489.5 622 1489 631.5 Q 1487.6 639.6 1481.5 643 L 1473.5 646 L 1457 646 L 1457 612 Z " /><path fill="rgb(0,0,0)" stroke="rgb(0,0,0)" stroke-width="1" opacity="0" d="M 1378.5 626 L 1394 660.5 L 1363.5 661 L 1364 659.5 L 1378.5 626 Z " /><path fill="rgb(0,0,0)" stroke="rgb(0,0,0)" stroke-width="1" opacity="0" d="M 1689.5 776 L 1696.5 776 L 1704.5 778 Q 1714.6 781.9 1721 789.5 L 1728 802.5 Q 1730.3 809.2 1729 819.5 Q 1726 832.5 1717.5 840 Q 1711 846.5 1700.5 849 L 1685.5 849 Q 1672.4 845.6 1665 836.5 L 1658 823.5 Q 1655.6 816.4 1657 805.5 Q 1660.6 791.6 1670.5 784 Q 1677.9 777.9 1689.5 776 Z " /><path fill="rgb(0,0,0)" stroke="rgb(0,0,0)" stroke-width="1" opacity="0" d="M 1878.5 776 L 1885.5 776 L 1898.5 780 L 1910 789.5 L 1918 805.5 L 1918 819.5 Q 1914.8 833.3 1905.5 841 L 1889.5 849 L 1874.5 849 Q 1862.1 845.9 1855 837.5 L 1847 823.5 Q 1844.7 816.8 1846 806.5 Q 1849 792.5 1858.5 785 Q 1866.1 778.1 1878.5 776 Z " /><path fill="rgb(0,0,0)" stroke="rgb(0,0,0)" stroke-width="1" opacity="0" d="M 2254.5 776 L 2269.5 778 Q 2280.5 782.5 2287 791.5 Q 2294.4 800.1 2294 816.5 Q 2291.3 833.8 2279.5 842 Q 2273.7 847.2 2264.5 849 L 2250.5 849 Q 2235.6 845.4 2228 834.5 Q 2220.5 825.5 2221 808.5 Q 2224.4 791.4 2236.5 783 L 2245.5 778 L 2254.5 776 Z " /><path fill="rgb(0,0,0)" stroke="rgb(0,0,0)" stroke-width="1" opacity="0" d="M 1284 939 L 1300.5 939 L 1303.5 940 Q 1314.2 943.8 1320 952.5 L 1326 966.5 L 1326 982.5 Q 1322.6 995.6 1313.5 1003 L 1302.5 1009 L 1284 1010 L 1284 939 Z " /><path fill="rgb(0,0,0)" stroke="rgb(0,0,0)" stroke-width="1" opacity="0" d="M 1909 939 L 1927.5 939 L 1934 943.5 Q 1937.5 947.5 1936 956.5 L 1930.5 963 L 1925.5 965 L 1909 965 L 1909 939 Z " /><path fill="rgb(0,0,0)" stroke="rgb(0,0,0)" stroke-width="1" opacity="0" d="M 2224.5 952 L 2240 986.5 L 2210 987 L 2224.5 952 Z " /><path fill="rgb(0,0,0)" stroke="rgb(0,0,0)" stroke-width="1" opacity="0" d="M 1592 953 Q 1595 951.8 1594 955.5 L 1608 987 L 1578 986.5 L 1592 953 Z " /><path fill="rgb(0,0,0)" stroke="rgb(0,0,0)" stroke-width="1" opacity="0" d="M 1829.5 953 L 1845 987 L 1815.5 987 L 1815 985.5 L 1829.5 953 Z " /><path fill="rgb(0,0,0)" stroke="rgb(0,0,0)" stroke-width="1" opacity="0" d="M 2014 953 Q 2016.7 951.9 2016 954.5 L 2030 987 L 2000 986.5 L 2014 953 Z " /><path fill="rgb(0,0,0)" stroke="rgb(0,0,0)" stroke-width="1" opacity="0" d="M 1909 977 L 1929.5 977 Q 1936 978.5 1939 983.5 L 1942 995.5 L 1941 1000.5 L 1936.5 1007 L 1930.5 1010 L 1909 1010 L 1909 977 Z " /><path fill="rgb(254,254,254)" stroke="rgb(254,254,254)" stroke-width="1" opacity="0.9607843137254902" d="M 875 126 L 1183.5 126 L 1184 126.5 L 1184 185 L 934 185 L 934 498 L 1085 498 L 1085 556 L 934 556 L 934 963 L 1183.5 963 L 1184 963.5 L 1184 1022 L 875 1022 L 875 126 Z " /><path fill="rgb(254,254,254)" stroke="rgb(254,254,254)" stroke-width="1" opacity="0.9607843137254902" d="M 118 128 L 351.5 128 L 362.5 130 L 380.5 137 Q 396.2 145.8 407 159.5 Q 414.5 168.5 419 180.5 L 423 197.5 L 423 387.5 L 375 500.5 L 374 506 Q 392.9 513.8 405 529.5 L 416 547.5 L 421 561.5 L 423 572.5 L 423 951.5 L 420 964.5 L 415 976.5 Q 406.9 991.4 394.5 1002 L 374.5 1015 L 359.5 1020 L 345.5 1021 L 344.5 1022 L 118 1022 L 118 963.5 L 118.5 963 L 342.5 963 Q 354.4 960.4 360 951.5 L 364 943.5 Q 362.7 938.7 365 937.5 L 365 580.5 L 362 570.5 L 353.5 561 L 341.5 556 L 212 556 L 212 498 L 313.5 498 L 317 492.5 L 365 379.5 L 365 209.5 Q 362.8 195.2 352.5 189 L 342.5 185 L 118 185 L 118 128 Z " /><path fill="rgb(254,254,254)" stroke="rgb(254,254,254)" stroke-width="1" opacity="0.9607843137254902" d="M 566.5 128 L 802.5 128 L 803 128.5 L 803 185 L 575.5 185 Q 564.6 187.6 559 195.5 L 554 206.5 L 554 780.5 L 555 781.5 L 556 798.5 L 560 817.5 L 572 851.5 Q 590.9 892.6 622.5 921 Q 649.2 945.8 685.5 961 L 705.5 968 L 726.5 973 L 738.5 974 L 739.5 975 L 748.5 975 L 749.5 976 L 765 976 L 765 1033.5 L 761.5 1034 L 760.5 1033 L 731.5 1032 L 703.5 1027 Q 675.3 1020.2 651.5 1009 Q 598.2 983.8 562 941.5 Q 534.6 910.4 517 869.5 L 506 838.5 L 501 817.5 L 499 799.5 L 498 798.5 L 498 790.5 L 497 789.5 L 497 772.5 L 496 771.5 L 496 199.5 L 497 198.5 L 498 187.5 L 505 169.5 Q 512.5 156.5 523.5 147 Q 533.4 138.4 546.5 133 L 566.5 128 Z " /><path fill="rgb(254,254,254)" stroke="rgb(254,254,254)" stroke-width="1" opacity="0.9607843137254902" d="M 2325.5 562 L 2334 571.5 L 2313.5 591 L 2306 583.5 L 2306 581.5 L 2325.5 562 Z " /><path fill="rgb(254,254,254)" stroke="rgb(254,254,254)" stroke-width="1" opacity="0.9607843137254902" d="M 1570.5 598 L 1580.5 598 L 1593.5 601 Q 1604.5 605.5 1612 613.5 Q 1620.2 622.3 1624 635.5 L 1625 654.5 Q 1622.2 671.7 1612 681.5 L 1621 690.5 L 1612.5 699 L 1602.5 689 L 1600.5 691 L 1583.5 697 L 1567.5 697 Q 1546.7 692.8 1536 678.5 L 1527 660.5 L 1526 655.5 L 1526 639.5 Q 1529.8 620.3 1542.5 610 L 1557.5 601 L 1570.5 598 Z M 1571 611 Q 1560 613 1553 619 Q 1542 627 1539 643 Q 1538 661 1547 671 Q 1555 681 1570 684 L 1582 684 L 1593 680 L 1593 679 L 1578 663 L 1586 655 L 1588 655 L 1603 671 Q 1608 667 1610 660 L 1612 651 Q 1612 635 1605 627 L 1591 614 L 1581 611 L 1571 611 Z " /><path fill="rgb(254,254,254)" stroke="rgb(254,254,254)" stroke-width="1" opacity="0.9607843137254902" d="M 1912.5 598 L 1922.5 598 L 1932.5 600 Q 1946 604.5 1954 614.5 L 1945.5 624 Q 1939.3 616.7 1929.5 613 L 1922.5 611 L 1911.5 611 Q 1896.8 614.3 1889 624.5 L 1882 637.5 L 1881 652.5 Q 1884.1 668.9 1895.5 677 Q 1904.7 685.3 1923.5 684 Q 1937.3 680.8 1945 671.5 Q 1944.2 668.5 1948 670 L 1955 679.5 L 1951.5 684 Q 1944.3 691.3 1933.5 695 L 1925.5 697 L 1909.5 697 Q 1888.5 693 1878 678.5 L 1869 660.5 Q 1866.2 651.8 1868 638.5 Q 1872.3 619.3 1885.5 609 L 1899.5 601 L 1912.5 598 Z " /><path fill="rgb(254,254,254)" stroke="rgb(254,254,254)" stroke-width="1" opacity="0.9607843137254902" d="M 2111.5 598 L 2174.5 665 L 2175 600 L 2187.5 600 L 2188 600.5 L 2188 698 Q 2185.3 699.1 2186 696.5 L 2124.5 632 L 2124 695 L 2111.5 695 L 2111 694.5 L 2111.5 598 Z " /><path fill="rgb(254,254,254)" stroke="rgb(254,254,254)" stroke-width="1" opacity="0.9607843137254902" d="M 2516.5 598 Q 2545.5 597.5 2558 613.5 L 2558 615.5 L 2550.5 624 L 2534.5 613 L 2527.5 611 L 2516.5 611 Q 2500 614.5 2492 626.5 L 2486 640.5 L 2486 655.5 Q 2489.3 667.7 2497.5 675 L 2511.5 683 L 2527.5 684 Q 2542.8 680.3 2551.5 670 L 2559 678.5 L 2559 680.5 Q 2552 689.5 2540.5 694 L 2529.5 697 L 2513.5 697 Q 2495.1 693.4 2485 681.5 Q 2471.8 669.2 2472 643.5 Q 2474.5 642 2473 636.5 L 2478 623.5 L 2491.5 608 L 2501.5 602 L 2516.5 598 Z " /><path fill="rgb(254,254,254)" stroke="rgb(254,254,254)" stroke-width="1" opacity="0.9607843137254902" d="M 2621.5 598 L 2632.5 598 L 2647.5 602 Q 2659.4 607.6 2667 617.5 Q 2673.3 625.3 2676 636.5 L 2677 651.5 L 2674 665.5 Q 2669.5 676.5 2661.5 684 Q 2652.7 692.2 2639.5 696 Q 2631.6 698.6 2619.5 697 Q 2597.8 692.8 2587 677.5 Q 2580.5 669.5 2578 657.5 L 2578 637.5 Q 2582.5 619 2595.5 609 L 2604.5 603 L 2621.5 598 Z M 2622 611 Q 2611 613 2605 619 Q 2594 627 2591 642 Q 2590 660 2598 670 Q 2606 680 2622 684 L 2634 684 L 2648 678 Q 2659 670 2663 655 L 2663 641 Q 2661 631 2656 626 Q 2650 617 2640 613 L 2633 611 L 2622 611 Z " /><path fill="rgb(254,254,254)" stroke="rgb(254,254,254)" stroke-width="1" opacity="0.9607843137254902" d="M 1378.5 599 L 1421 695 L 1408.5 695 L 1408 692.5 L 1398.5 673 L 1358.5 673 L 1357 674.5 L 1349 695 L 1335 694.5 L 1378.5 599 Z M 1379 626 L 1364 660 L 1364 661 L 1394 661 L 1379 626 Z " /><path fill="rgb(254,254,254)" stroke="rgb(254,254,254)" stroke-width="1" opacity="0.9607843137254902" d="M 1271 600 L 1303.5 600 Q 1315.6 602.4 1322 610.5 Q 1328.6 617.9 1328 632.5 L 1324 645.5 L 1317.5 653 L 1310.5 657 L 1301.5 659 L 1284 659 L 1284 695 L 1271 695 L 1271 600 Z M 1284 612 L 1284 647 L 1302 647 L 1307 645 L 1312 640 L 1315 631 L 1314 624 L 1310 616 L 1303 612 L 1284 612 Z " /><path fill="rgb(254,254,254)" stroke="rgb(254,254,254)" stroke-width="1" opacity="0.9607843137254902" d="M 1445 600 L 1475.5 600 Q 1490 602.5 1497 612.5 Q 1503.2 619.8 1501 635.5 Q 1498.3 645.8 1490.5 651 Q 1484 655.4 1475 656 L 1475 657.5 L 1508 694.5 L 1493.5 695 L 1461 659.5 L 1461 658 L 1457 658.5 L 1457 695 L 1445 695 L 1445 600 Z M 1457 612 L 1457 646 L 1474 646 L 1482 643 Q 1488 640 1489 632 Q 1489 622 1485 618 Q 1481 613 1475 612 L 1457 612 Z " /><path fill="rgb(254,254,254)" stroke="rgb(254,254,254)" stroke-width="1" opacity="0.9607843137254902" d="M 1648 600 L 1660.5 600 L 1661 600.5 L 1661 665.5 Q 1663.1 675.9 1670.5 681 Q 1676.1 685.4 1686.5 685 Q 1697.4 683.4 1702 675.5 L 1706 665.5 L 1706 600 L 1718.5 600 L 1719 600.5 L 1719 667.5 Q 1716.2 682.2 1706.5 690 Q 1697.1 698.1 1678.5 697 L 1669.5 695 L 1663.5 692 L 1656 685.5 L 1651 677.5 L 1648 666.5 L 1648 600 Z " /><path fill="rgb(254,254,254)" stroke="rgb(254,254,254)" stroke-width="1" opacity="0.9607843137254902" d="M 1753 600 L 1807.5 600 L 1808 600.5 L 1808 612 L 1766 612 L 1766 640 L 1793 640 L 1793 652 L 1766 652 L 1766 684 L 1809.5 684 L 1810 684.5 L 1810 695 L 1753 695 L 1753 600 Z " /><path fill="rgb(254,254,254)" stroke="rgb(254,254,254)" stroke-width="1" opacity="0.9607843137254902" d="M 1979 600 L 1991.5 600 L 1992 600.5 L 1992 695 L 1979.5 695 L 1979 694.5 L 1979 600 Z " /><path fill="rgb(254,254,254)" stroke="rgb(254,254,254)" stroke-width="1" opacity="0.9607843137254902" d="M 2025 600 L 2079.5 600 L 2080 600.5 L 2080 612 L 2038 612 L 2038 640 L 2064 640 L 2064 652 L 2038 652 L 2038 684 L 2081.5 684 L 2082 684.5 L 2082 695 L 2025 695 L 2025 600 Z " /><path fill="rgb(254,254,254)" stroke="rgb(254,254,254)" stroke-width="1" opacity="0.9607843137254902" d="M 2216 600 L 2277.5 600 L 2278 600.5 L 2278 612 L 2254 612 L 2254 694.5 L 2253.5 695 L 2241 695 L 2241 612.5 L 2240.5 612 L 2216 612 L 2216 600 Z " /><path fill="rgb(254,254,254)" stroke="rgb(254,254,254)" stroke-width="1" opacity="0.9607843137254902" d="M 2306 600 L 2318.5 600 L 2319 600.5 L 2319 695 L 2306.5 695 L 2306 694.5 L 2306 600 Z " /><path fill="rgb(254,254,254)" stroke="rgb(254,254,254)" stroke-width="1" opacity="0.9607843137254902" d="M 2352 600 L 2404.5 600 L 2405 600.5 L 2405 612 L 2365 612 L 2365 640 L 2391 640 L 2391 652 L 2365 652 L 2365 694.5 L 2364.5 695 L 2352 695 L 2352 600 Z " /><path fill="rgb(254,254,254)" stroke="rgb(254,254,254)" stroke-width="1" opacity="0.9607843137254902" d="M 2433 600 L 2445.5 600 L 2446 600.5 L 2446 695 L 2433.5 695 L 2433 694.5 L 2433 600 Z " /><path fill="rgb(254,254,254)" stroke="rgb(254,254,254)" stroke-width="1" opacity="0.9607843137254902" d="M 1892.5 726 L 1901 734.5 L 1901 736.5 L 1881.5 755 L 1873 745.5 L 1892.5 726 Z " /><path fill="rgb(254,254,254)" stroke="rgb(254,254,254)" stroke-width="1" opacity="0.9607843137254902" d="M 1540.5 763 L 1603.5 830 L 1604 765 L 1616.5 765 L 1617 765.5 L 1617 863 L 1613 860.5 L 1553.5 797 L 1553 861 L 1540.5 861 L 1540 860.5 L 1540.5 763 Z " /><path fill="rgb(254,254,254)" stroke="rgb(254,254,254)" stroke-width="1" opacity="0.9607843137254902" d="M 1467.5 764 L 1487.5 764 L 1491.5 765 Q 1505.9 769.1 1514 779.5 L 1505.5 790 Q 1497 776 1474.5 776 Q 1456.5 779 1448 791.5 L 1442 804.5 L 1441 814.5 Q 1443.5 816 1442 821.5 L 1447 832.5 L 1455.5 842 L 1470.5 849 L 1485.5 849 Q 1499.5 845 1507.5 835 L 1515 843.5 L 1515 845.5 Q 1507.4 855.4 1494.5 860 L 1487.5 862 L 1468.5 862 Q 1448.4 857.6 1438 843.5 Q 1431.8 835.7 1429 824.5 L 1428 807.5 L 1430 797.5 L 1434 788.5 L 1446.5 774 Q 1454.8 766.8 1467.5 764 Z " /><path fill="rgb(254,254,254)" stroke="rgb(254,254,254)" stroke-width="1" opacity="0.9607843137254902" d="M 1683.5 764 Q 1701.7 761.8 1712.5 767 Q 1723.6 771.9 1731 780.5 Q 1742.7 792.3 1743 815.5 Q 1740.3 817.2 1742 823.5 L 1739 832.5 Q 1734.1 843.6 1725.5 851 Q 1717.8 857.8 1706.5 861 L 1702.5 862 L 1683.5 862 Q 1665.1 857.9 1655 845.5 Q 1643 833.5 1643 809.5 L 1645 798.5 L 1651 785.5 L 1661.5 774 Q 1670.3 766.8 1683.5 764 Z M 1690 776 Q 1678 778 1671 784 Q 1661 792 1657 806 Q 1656 816 1658 824 L 1665 837 Q 1672 846 1686 849 L 1701 849 Q 1711 846 1718 840 Q 1726 833 1729 820 Q 1730 809 1728 803 L 1721 790 Q 1715 782 1705 778 L 1697 776 L 1690 776 Z " /><path fill="rgb(254,254,254)" stroke="rgb(254,254,254)" stroke-width="1" opacity="0.9607843137254902" d="M 1872.5 764 Q 1890.7 761.8 1901.5 767 Q 1913.5 772 1921 781.5 L 1930 798.5 L 1932 816.5 L 1930 827.5 L 1925 838.5 L 1914.5 851 Q 1906.8 857.8 1895.5 861 L 1891.5 862 L 1872.5 862 Q 1854.1 857.9 1844 845.5 Q 1832.7 833.3 1832 810.5 L 1835 795.5 Q 1839.9 782.9 1849.5 775 Q 1858.4 766.9 1872.5 764 Z M 1879 776 Q 1866 778 1859 785 Q 1849 793 1846 807 Q 1845 817 1847 824 L 1855 838 Q 1862 846 1875 849 L 1890 849 L 1906 841 Q 1915 833 1918 820 L 1918 806 L 1910 790 L 1899 780 L 1886 776 L 1879 776 Z " /><path fill="rgb(254,254,254)" stroke="rgb(254,254,254)" stroke-width="1" opacity="0.9607843137254902" d="M 1989.5 764 L 2009.5 764 L 2013.5 765 Q 2027.9 769.1 2036 779.5 L 2027.5 790 Q 2021.5 782 2011.5 778 L 1996.5 776 Q 1978.5 779 1970 791.5 Q 1962.9 799.9 1963 815.5 L 1967 829.5 L 1977.5 842 L 1992.5 849 L 2007.5 849 Q 2018.8 846.3 2025 838.5 L 2025 826 L 2000 826 L 2000 814 L 2037 814 L 2037 845.5 Q 2029.4 855.4 2016.5 860 L 2009.5 862 L 1990.5 862 Q 1970.4 857.6 1960 843.5 L 1952 828.5 L 1950 819.5 L 1950 806.5 Q 1954 784 1969.5 773 Q 1977.6 766.6 1989.5 764 Z " /><path fill="rgb(254,254,254)" stroke="rgb(254,254,254)" stroke-width="1" opacity="0.9607843137254902" d="M 2142.5 764 L 2161.5 764 L 2165.5 765 Q 2180.3 769.2 2189 779.5 L 2180.5 790 Q 2174.9 783.1 2166.5 779 L 2155.5 776 L 2148.5 776 Q 2133.3 778.8 2125 788.5 Q 2114.9 797.9 2116 818.5 Q 2119.5 835 2131.5 843 L 2144.5 849 L 2159.5 849 Q 2173.7 845.2 2181.5 835 L 2190 845.5 Q 2182.6 854.1 2171.5 859 Q 2160.7 864.2 2142.5 862 Q 2125.8 858.2 2116 847.5 Q 2107.8 839.2 2104 826.5 L 2103 821.5 L 2103 803.5 Q 2107 786 2118.5 776 Q 2127.7 767.2 2142.5 764 Z " /><path fill="rgb(254,254,254)" stroke="rgb(254,254,254)" stroke-width="1" opacity="0.9607843137254902" d="M 2247.5 764 L 2267.5 764 L 2274.5 766 Q 2289.3 771.7 2298 783.5 L 2306 800.5 L 2307 805.5 L 2307 820.5 Q 2302.8 842.3 2287.5 853 Q 2279.4 859.4 2267.5 862 L 2247.5 862 Q 2227.5 857 2217 842.5 L 2209 825.5 L 2208 820.5 L 2208 805.5 Q 2212.3 783.8 2227.5 773 Q 2235.5 766.5 2247.5 764 Z M 2255 776 L 2246 778 L 2237 783 Q 2224 791 2221 809 Q 2220 826 2228 835 Q 2236 845 2251 849 L 2265 849 Q 2274 847 2280 842 Q 2291 834 2294 817 Q 2294 800 2287 792 Q 2280 783 2270 778 L 2255 776 Z " /><path fill="rgb(254,254,254)" stroke="rgb(254,254,254)" stroke-width="1" opacity="0.9607843137254902" d="M 583 765 L 639.5 765 L 640 765.5 L 640 775.5 L 644 797.5 Q 648.5 813.5 656 826.5 Q 666.7 845.3 682.5 859 Q 698.6 873.4 720.5 882 Q 739.4 889.9 765 890 L 765 946.5 L 764.5 947 L 751.5 947 L 750.5 946 L 734.5 945 L 706.5 938 L 673.5 923 Q 646.7 907.3 627 884.5 Q 605.5 860 593 826.5 L 587 805.5 L 584 789.5 L 583 765 Z " /><path fill="rgb(254,254,254)" stroke="rgb(254,254,254)" stroke-width="1" opacity="0.9607843137254902" d="M 669 765 L 725.5 765 L 726 767.5 L 731 783.5 L 740.5 795 L 750.5 801 L 757.5 803 L 763.5 803 L 765 804.5 L 765 860.5 Q 764.9 861.6 759.5 861 L 758.5 860 L 744.5 859 L 728.5 854 Q 706.5 844.5 692 827.5 Q 680.6 814.4 674 796.5 L 670 780.5 L 669 765 Z " /><path fill="rgb(254,254,254)" stroke="rgb(254,254,254)" stroke-width="1" opacity="0.9607843137254902" d="M 1259 765 L 1320.5 765 L 1321 765.5 L 1321 777 L 1297 777 L 1297 860.5 L 1296.5 861 L 1284 861 L 1284 777.5 L 1283.5 777 L 1259 777 L 1259 765 Z " /><path fill="rgb(254,254,254)" stroke="rgb(254,254,254)" stroke-width="1" opacity="0.9607843137254902" d="M 1349 765 L 1404.5 765 L 1405 765.5 L 1405 777 L 1362 777 L 1362 806 L 1389 806 L 1389 818 L 1362 818 L 1362 849 L 1405.5 849 L 1406 849.5 L 1406 861 L 1349 861 L 1349 765 Z " /><path fill="rgb(254,254,254)" stroke="rgb(254,254,254)" stroke-width="1" opacity="0.9607843137254902" d="M 1768 765 L 1780.5 765 L 1781 765.5 L 1781 848 L 1813 848 L 1813 861 L 1768 861 L 1768 765 Z " /><path fill="rgb(254,254,254)" stroke="rgb(254,254,254)" stroke-width="1" opacity="0.9607843137254902" d="M 2064 765 L 2075.5 765 L 2076 765.5 L 2076 861 L 2064.5 861 L 2064 860.5 L 2064 765 Z " /><path fill="rgb(254,254,254)" stroke="rgb(254,254,254)" stroke-width="1" opacity="0.9607843137254902" d="M 2081.5 924 L 2144.5 991 L 2145 927 L 2157.5 927 L 2158 927.5 L 2158 1024 L 2155 1022.5 L 2094.5 958 L 2094 1022 L 2081.5 1022 L 2081 1021.5 L 2081.5 924 Z " /><path fill="rgb(254,254,254)" stroke="rgb(254,254,254)" stroke-width="1" opacity="0.9607843137254902" d="M 1593.5 925 L 1636 1022 L 1623.5 1022 L 1623 1020.5 L 1614 999 L 1573.5 999 L 1572 1000.5 L 1562.5 1022 L 1550.5 1022 L 1550 1020.5 L 1589 932.5 L 1593.5 925 Z M 1592 953 L 1578 987 L 1608 987 L 1594 956 Q 1595 952 1592 953 Z " /><path fill="rgb(254,254,254)" stroke="rgb(254,254,254)" stroke-width="1" opacity="0.9607843137254902" d="M 1829.5 925 L 1873 1021.5 L 1860 1022 L 1849.5 999 L 1809.5 999 L 1809 1000.5 L 1799.5 1022 L 1787.5 1022 L 1787 1020.5 L 1829.5 925 Z M 1830 953 L 1815 986 L 1816 987 L 1845 987 L 1830 953 Z " /><path fill="rgb(254,254,254)" stroke="rgb(254,254,254)" stroke-width="1" opacity="0.9607843137254902" d="M 2015.5 925 L 2058 1022 L 2045.5 1022 L 2045 1020.5 L 2036 999 L 1995.5 999 L 1994 1000.5 L 1988 1016.5 L 1984.5 1022 L 1972.5 1022 L 1972 1020.5 L 2015.5 925 Z M 2014 953 L 2000 987 L 2030 987 L 2016 955 Q 2017 952 2014 953 Z " /><path fill="rgb(254,254,254)" stroke="rgb(254,254,254)" stroke-width="1" opacity="0.9607843137254902" d="M 2224.5 925 L 2267 1019.5 L 2267 1022 L 2255.5 1022 L 2254 1020.5 L 2245 999 L 2204.5 999 L 2204 1000.5 L 2195 1022 L 2181 1021.5 L 2224.5 925 Z M 2225 952 L 2210 987 L 2240 987 L 2225 952 Z " /><path fill="rgb(254,254,254)" stroke="rgb(254,254,254)" stroke-width="1" opacity="0.9607843137254902" d="M 1271 927 L 1298.5 927 L 1307.5 929 Q 1322.3 934.2 1331 945.5 L 1337 956.5 L 1339 964.5 L 1339 984.5 Q 1335.7 1000.2 1325.5 1009 Q 1316.3 1017.8 1301.5 1021 L 1296.5 1022 L 1271 1022 L 1271 927 Z M 1284 939 L 1284 1010 L 1303 1009 L 1314 1003 Q 1323 996 1326 983 L 1326 967 L 1320 953 Q 1314 944 1304 940 L 1301 939 L 1284 939 Z " /><path fill="rgb(254,254,254)" stroke="rgb(254,254,254)" stroke-width="1" opacity="0.9607843137254902" d="M 1366 927 L 1420.5 927 L 1421 927.5 L 1421 939 L 1379 939 L 1379 967 L 1405 967 L 1405 979 L 1379 979 L 1379 1010 L 1421.5 1010 L 1422 1010.5 L 1422 1022 L 1366 1022 L 1366 927 Z " /><path fill="rgb(254,254,254)" stroke="rgb(254,254,254)" stroke-width="1" opacity="0.9607843137254902" d="M 1487 927 L 1499.5 927 L 1500 927.5 L 1500 1009 L 1532 1009 L 1532 1022 L 1487 1022 L 1487 927 Z " /><path fill="rgb(254,254,254)" stroke="rgb(254,254,254)" stroke-width="1" opacity="0.9607843137254902" d="M 1695 927 L 1707.5 927 L 1708 927.5 L 1708 967 L 1751 967 L 1751 927.5 L 1751.5 927 L 1764 927 L 1764 1021.5 L 1763.5 1022 L 1751 1022 L 1751 979 L 1708 979 L 1708 1021.5 L 1707.5 1022 L 1695 1022 L 1695 927 Z " /><path fill="rgb(254,254,254)" stroke="rgb(254,254,254)" stroke-width="1" opacity="0.9607843137254902" d="M 1896 927 L 1928.5 927 Q 1939.4 929.1 1945 936.5 Q 1951.3 943.2 1949 958.5 L 1942 971 L 1949 976.5 L 1954 987.5 L 1954 1001.5 Q 1951.9 1010.9 1945.5 1016 L 1931.5 1022 L 1896 1022 L 1896 927 Z M 1909 939 L 1909 965 L 1926 965 L 1931 963 L 1936 957 Q 1938 948 1934 944 L 1928 939 L 1909 939 Z M 1909 977 L 1909 1010 L 1931 1010 L 1937 1007 L 1941 1001 L 1942 996 L 1939 984 Q 1936 979 1930 977 L 1909 977 Z " /></svg>